<svg width="81" height="73" viewBox="0 0 81 73" fill="none" xmlns="http://www.w3.org/2000/svg">
<mask id="path-1-inside-1" fill="white">
<rect width="76.7028" height="67.9368" rx="2"/>
</mask>
<rect width="76.7028" height="67.9368" rx="2" fill="#F6F0E1" stroke="black" stroke-width="6" mask="url(#path-1-inside-1)"/>
<path d="M6.58176 71.3198L1.10767 66.841L75.0711 65.7452V0.547852L79.4885 5.45616C79.8191 5.82341 80.002 6.30001 80.002 6.79409V69.7719C80.002 70.8764 79.1065 71.7719 78.002 71.7719H7.84824C7.38656 71.7719 6.93909 71.6121 6.58176 71.3198Z" fill="black" stroke="black" stroke-linecap="round" stroke-linejoin="round"/>
<path d="M53.4955 6.57422H49.5125C49.402 6.57422 49.3125 6.66376 49.3125 6.77422V10.7572C49.3125 10.8677 49.402 10.9572 49.5125 10.9572H53.4955C53.606 10.9572 53.6955 10.8677 53.6955 10.7572V6.77422C53.6955 6.66376 53.606 6.57422 53.4955 6.57422Z" fill="black"/>
<path d="M61.1535 6.57422H57.1705C57.06 6.57422 56.9705 6.66376 56.9705 6.77422V10.7572C56.9705 10.8677 57.06 10.9572 57.1705 10.9572H61.1535C61.2639 10.9572 61.3535 10.8677 61.3535 10.7572V6.77422C61.3535 6.66376 61.2639 6.57422 61.1535 6.57422Z" fill="black"/>
<path d="M68.8354 6.57422H64.8523C64.7419 6.57422 64.6523 6.66376 64.6523 6.77422V10.7572C64.6523 10.8677 64.7419 10.9572 64.8523 10.9572H68.8354C68.9458 10.9572 69.0354 10.8677 69.0354 10.7572V6.77422C69.0354 6.66376 68.9458 6.57422 68.8354 6.57422Z" fill="black"/>
<path d="M3.29907 15.3398L74.5231 15.3398" stroke="black" stroke-width="2" stroke-linecap="round" stroke-linejoin="round"/>
</svg>
