<svg width="315" height="366" viewBox="0 0 315 366" fill="none" xmlns="http://www.w3.org/2000/svg">
<rect x="142.007" y="4.07568" width="168.992" height="358.403" rx="2.1124" fill="black" stroke="black" stroke-width="7.04133" stroke-miterlimit="10"/>
<rect x="4" y="4.07568" width="133.785" height="345.025" rx="2.1124" fill="#F6F0E1" stroke="black" stroke-width="7.04133" stroke-miterlimit="10"/>
<rect x="142.007" y="4.07568" width="148.572" height="345.025" rx="2.1124" fill="#F6F0E1" stroke="black" stroke-width="7.04133" stroke-miterlimit="10"/>
<rect x="142.013" y="4.07617" width="148.572" height="115.008" rx="2.1124" fill="#F6F0E1" stroke="black" stroke-width="7.04133" stroke-miterlimit="10"/>
<rect x="158.202" y="35.0586" width="10.562" height="10.562" fill="black"/>
<rect x="179.325" y="35.0586" width="10.562" height="10.562" fill="black"/>
<rect x="200.451" y="35.0586" width="10.562" height="10.562" fill="black"/>
<rect x="221.574" y="35.0586" width="10.562" height="10.562" fill="black"/>
<rect x="242.7" y="35.0586" width="10.562" height="10.562" fill="black"/>
<rect x="263.822" y="35.0586" width="10.562" height="10.562" fill="black"/>
<rect x="158.202" y="56.1824" width="10.562" height="10.562" fill="black"/>
<rect x="179.325" y="56.1824" width="10.562" height="10.562" fill="black"/>
<rect x="200.451" y="56.1824" width="10.562" height="10.562" fill="black"/>
<rect x="221.574" y="56.1824" width="10.562" height="10.562" fill="black"/>
<rect x="242.7" y="56.1824" width="10.562" height="10.562" fill="black"/>
<rect x="263.822" y="56.1824" width="10.562" height="10.562" fill="black"/>
<rect x="158.202" y="77.3062" width="10.562" height="10.562" fill="black"/>
<rect x="179.325" y="77.3057" width="10.562" height="10.562" fill="black"/>
<rect x="200.451" y="77.3057" width="10.562" height="10.562" fill="black"/>
<rect x="221.574" y="77.3057" width="10.562" height="10.562" fill="black"/>
<rect x="242.7" y="77.3057" width="10.562" height="10.562" fill="black"/>
<rect x="263.822" y="77.3057" width="10.562" height="10.562" fill="black"/>
<rect x="142.013" y="118.85" width="148.572" height="115.008" rx="2.1124" fill="#F6F0E1" stroke="black" stroke-width="7.04133" stroke-miterlimit="10"/>
<rect x="158.202" y="149.832" width="10.562" height="10.562" fill="black"/>
<rect x="179.325" y="149.832" width="10.562" height="10.562" fill="black"/>
<rect x="200.451" y="149.832" width="10.562" height="10.562" fill="black"/>
<rect x="221.574" y="149.832" width="10.562" height="10.562" fill="black"/>
<rect x="242.7" y="149.832" width="10.562" height="10.562" fill="black"/>
<rect x="263.822" y="149.832" width="10.562" height="10.562" fill="black"/>
<rect x="158.202" y="170.956" width="10.562" height="10.562" fill="black"/>
<rect x="179.325" y="170.956" width="10.562" height="10.562" fill="black"/>
<rect x="200.451" y="170.956" width="10.562" height="10.562" fill="black"/>
<rect x="221.574" y="170.956" width="10.562" height="10.562" fill="black"/>
<rect x="242.7" y="170.956" width="10.562" height="10.562" fill="black"/>
<rect x="263.822" y="170.956" width="10.562" height="10.562" fill="black"/>
<rect x="158.202" y="192.08" width="10.562" height="10.562" fill="black"/>
<rect x="179.325" y="192.08" width="10.562" height="10.562" fill="black"/>
<rect x="200.451" y="192.08" width="10.562" height="10.562" fill="black"/>
<rect x="221.574" y="192.08" width="10.562" height="10.562" fill="black"/>
<rect x="242.7" y="192.08" width="10.562" height="10.562" fill="black"/>
<rect x="263.822" y="192.08" width="10.562" height="10.562" fill="black"/>
<rect x="142.013" y="233.623" width="148.572" height="115.008" rx="2.1124" fill="#F6F0E1" stroke="black" stroke-width="7.04133" stroke-miterlimit="10"/>
<rect x="158.202" y="264.605" width="10.562" height="10.562" fill="black"/>
<rect x="179.325" y="264.605" width="10.562" height="10.562" fill="black"/>
<rect x="200.451" y="264.605" width="10.562" height="10.562" fill="black"/>
<rect x="221.574" y="264.605" width="10.562" height="10.562" fill="black"/>
<rect x="242.7" y="264.605" width="10.562" height="10.562" fill="black"/>
<rect x="263.822" y="264.605" width="10.562" height="10.562" fill="black"/>
<rect x="158.202" y="285.729" width="10.562" height="10.562" fill="black"/>
<rect x="179.325" y="285.729" width="10.562" height="10.562" fill="black"/>
<rect x="200.451" y="285.729" width="10.562" height="10.562" fill="black"/>
<rect x="221.574" y="285.729" width="10.562" height="10.562" fill="black"/>
<rect x="242.7" y="285.729" width="10.562" height="10.562" fill="black"/>
<rect x="263.822" y="285.729" width="10.562" height="10.562" fill="black"/>
<rect x="158.202" y="306.852" width="10.562" height="10.562" fill="black"/>
<rect x="179.325" y="306.852" width="10.562" height="10.562" fill="black"/>
<rect x="200.451" y="306.852" width="10.562" height="10.562" fill="black"/>
<rect x="221.574" y="306.852" width="10.562" height="10.562" fill="black"/>
<rect x="242.7" y="306.852" width="10.562" height="10.562" fill="black"/>
<rect x="263.822" y="306.852" width="10.562" height="10.562" fill="black"/>
<rect x="135.673" y="0.555176" width="7.74546" height="365.445" fill="black"/>
<path d="M4 349.101H137.785V360.367C137.785 361.533 136.839 362.479 135.673 362.479H6.11239C4.94575 362.479 4 361.533 4 360.367V349.101Z" fill="#F6F0E1" stroke="black" stroke-width="7.04133" stroke-miterlimit="10"/>
<path d="M142.007 349.101H289.875V360.367C289.875 361.533 288.929 362.479 287.762 362.479H144.119C142.953 362.479 142.007 361.533 142.007 360.367V349.101Z" fill="#F6F0E1" stroke="black" stroke-width="7.04133" stroke-miterlimit="10"/>
<rect x="117.367" y="147.015" width="7.04133" height="17.6033" rx="1.40827" fill="black"/>
<rect x="117.367" y="171.66" width="7.04133" height="17.6033" rx="1.40827" fill="black"/>
<rect x="117.367" y="196.304" width="7.04133" height="17.6033" rx="1.40827" fill="black"/>
<rect x="20.8965" y="20.9751" width="99.9868" height="95.762" rx="1.40827" fill="#F6F0E1" stroke="black" stroke-width="7.04133" stroke-miterlimit="10"/>
<rect x="33.5745" y="33.6492" width="74.638" height="70.4133" rx="3.52066" fill="black"/>
<rect x="44.8416" y="63.2229" width="10.562" height="10.562" fill="#F6F0E1"/>
<rect x="65.9641" y="63.2229" width="10.562" height="10.562" fill="#F6F0E1"/>
<rect x="87.0903" y="63.2229" width="10.562" height="10.562" fill="#F6F0E1"/>
</svg>
