<svg width="253" height="191" viewBox="0 0 253 191" fill="none" xmlns="http://www.w3.org/2000/svg">
<path d="M-31.4 -0.000290074C-29.4118 -0.000290161 -27.8 1.7039 -27.8 3.80615C-27.8 5.9084 -29.4118 7.61261 -31.4 7.61261C-33.3882 7.61261 -35 5.9084 -35 3.80615C-35 1.7039 -33.3882 -0.000289987 -31.4 -0.000290074Z" fill="#333333"/>
<path d="M-31.4 45.6771C-29.4118 45.6771 -27.8 47.3813 -27.8 49.4836C-27.8 51.5858 -29.4118 53.29 -31.4 53.29C-33.3882 53.29 -35 51.5858 -35 49.4836C-35 47.3813 -33.3882 45.6771 -31.4 45.6771Z" fill="#333333"/>
<path d="M-31.4 91.3545C-29.4118 91.3545 -27.8 93.0587 -27.8 95.161C-27.8 97.2632 -29.4118 98.9674 -31.4 98.9674C-33.3882 98.9674 -35 97.2632 -35 95.161C-35 93.0587 -33.3882 91.3545 -31.4 91.3545Z" fill="#333333"/>
<path d="M-31.4 137.032C-29.4118 137.032 -27.8 138.736 -27.8 140.838C-27.8 142.941 -29.4118 144.645 -31.4 144.645C-33.3882 144.645 -35 142.941 -35 140.838C-35 138.736 -33.3882 137.032 -31.4 137.032Z" fill="#333333"/>
<path d="M-31.4 182.709C-29.4118 182.709 -27.8 184.414 -27.8 186.516C-27.8 188.618 -29.4118 190.322 -31.4 190.322C-33.3882 190.322 -35 188.618 -35 186.516C-35 184.414 -33.3882 182.709 -31.4 182.709Z" fill="#333333"/>
<path d="M-9.80001 22.8384C-7.81178 22.8384 -6.20001 24.5426 -6.20001 26.6449C-6.20001 28.7471 -7.81178 30.4513 -9.80001 30.4513C-11.7882 30.4513 -13.4 28.7471 -13.4 26.6449C-13.4 24.5426 -11.7882 22.8384 -9.80001 22.8384Z" fill="#333333"/>
<path d="M-9.8 68.5158C-7.81178 68.5158 -6.2 70.22 -6.2 72.3223C-6.2 74.4245 -7.81178 76.1287 -9.8 76.1287C-11.7882 76.1287 -13.4 74.4245 -13.4 72.3223C-13.4 70.22 -11.7882 68.5158 -9.8 68.5158Z" fill="#333333"/>
<path d="M-9.8 114.193C-7.81178 114.193 -6.2 115.897 -6.2 118C-6.2 120.102 -7.81178 121.806 -9.8 121.806C-11.7882 121.806 -13.4 120.102 -13.4 118C-13.4 115.897 -11.7882 114.193 -9.8 114.193Z" fill="#333333"/>
<path d="M-9.8 159.871C-7.81177 159.871 -6.2 161.575 -6.2 163.677C-6.2 165.779 -7.81177 167.484 -9.8 167.484C-11.7882 167.484 -13.4 165.779 -13.4 163.677C-13.4 161.575 -11.7882 159.871 -9.8 159.871Z" fill="#333333"/>
<path d="M11.8 -0.000291963C13.7882 -0.00029205 15.4 1.7039 15.4 3.80615C15.4 5.9084 13.7882 7.61261 11.8 7.61261C9.81177 7.61261 8.19999 5.9084 8.19999 3.80615C8.19999 1.7039 9.81177 -0.000291876 11.8 -0.000291963Z" fill="#333333"/>
<path d="M11.8 45.6771C13.7882 45.6771 15.4 47.3813 15.4 49.4836C15.4 51.5858 13.7882 53.29 11.8 53.29C9.81177 53.29 8.19999 51.5858 8.19999 49.4836C8.19999 47.3813 9.81177 45.6771 11.8 45.6771Z" fill="#333333"/>
<path d="M11.8 91.3545C13.7882 91.3545 15.4 93.0587 15.4 95.161C15.4 97.2632 13.7882 98.9674 11.8 98.9674C9.81178 98.9674 8.2 97.2632 8.2 95.161C8.2 93.0587 9.81177 91.3545 11.8 91.3545Z" fill="#333333"/>
<path d="M11.8 137.032C13.7882 137.032 15.4 138.736 15.4 140.838C15.4 142.941 13.7882 144.645 11.8 144.645C9.81178 144.645 8.2 142.941 8.2 140.838C8.2 138.736 9.81178 137.032 11.8 137.032Z" fill="#333333"/>
<path d="M11.8 182.709C13.7882 182.709 15.4 184.414 15.4 186.516C15.4 188.618 13.7882 190.322 11.8 190.322C9.81178 190.322 8.2 188.618 8.2 186.516C8.2 184.414 9.81178 182.709 11.8 182.709Z" fill="#333333"/>
<path d="M33.4 22.8384C35.3882 22.8384 37 24.5426 37 26.6449C37 28.7471 35.3882 30.4513 33.4 30.4513C31.4118 30.4513 29.8 28.7471 29.8 26.6449C29.8 24.5426 31.4118 22.8384 33.4 22.8384Z" fill="#333333"/>
<path d="M33.4 68.5158C35.3882 68.5158 37 70.22 37 72.3223C37 74.4245 35.3882 76.1287 33.4 76.1287C31.4118 76.1287 29.8 74.4245 29.8 72.3223C29.8 70.22 31.4118 68.5158 33.4 68.5158Z" fill="#333333"/>
<path d="M33.4 114.193C35.3882 114.193 37 115.897 37 118C37 120.102 35.3882 121.806 33.4 121.806C31.4118 121.806 29.8 120.102 29.8 118C29.8 115.897 31.4118 114.193 33.4 114.193Z" fill="#333333"/>
<path d="M33.4 159.871C35.3882 159.871 37 161.575 37 163.677C37 165.779 35.3882 167.484 33.4 167.484C31.4118 167.484 29.8 165.779 29.8 163.677C29.8 161.575 31.4118 159.871 33.4 159.871Z" fill="#333333"/>
<path d="M55 -0.000293851C56.9882 -0.000293938 58.6 1.7039 58.6 3.80615C58.6 5.9084 56.9882 7.61261 55 7.61261C53.0118 7.61261 51.4 5.9084 51.4 3.80615C51.4 1.7039 53.0118 -0.000293764 55 -0.000293851Z" fill="#333333"/>
<path d="M55 45.6771C56.9882 45.6771 58.6 47.3813 58.6 49.4836C58.6 51.5858 56.9882 53.29 55 53.29C53.0118 53.29 51.4 51.5858 51.4 49.4836C51.4 47.3813 53.0118 45.6771 55 45.6771Z" fill="#333333"/>
<path d="M55 91.3545C56.9882 91.3545 58.6 93.0587 58.6 95.161C58.6 97.2632 56.9882 98.9674 55 98.9674C53.0118 98.9674 51.4 97.2632 51.4 95.161C51.4 93.0587 53.0118 91.3545 55 91.3545Z" fill="#333333"/>
<path d="M55 137.032C56.9882 137.032 58.6 138.736 58.6 140.838C58.6 142.941 56.9882 144.645 55 144.645C53.0118 144.645 51.4 142.941 51.4 140.838C51.4 138.736 53.0118 137.032 55 137.032Z" fill="#333333"/>
<path d="M55 182.709C56.9882 182.709 58.6 184.414 58.6 186.516C58.6 188.618 56.9882 190.322 55 190.322C53.0118 190.322 51.4 188.618 51.4 186.516C51.4 184.414 53.0118 182.709 55 182.709Z" fill="#333333"/>
<path d="M76.6 22.8384C78.5882 22.8384 80.2 24.5426 80.2 26.6449C80.2 28.7471 78.5882 30.4513 76.6 30.4513C74.6118 30.4513 73 28.7471 73 26.6449C73 24.5426 74.6118 22.8384 76.6 22.8384Z" fill="#333333"/>
<path d="M76.6 68.5158C78.5882 68.5158 80.2 70.22 80.2 72.3223C80.2 74.4245 78.5882 76.1287 76.6 76.1287C74.6118 76.1287 73 74.4245 73 72.3223C73 70.22 74.6118 68.5158 76.6 68.5158Z" fill="#333333"/>
<path d="M76.6 114.193C78.5882 114.193 80.2 115.897 80.2 118C80.2 120.102 78.5882 121.806 76.6 121.806C74.6118 121.806 73 120.102 73 118C73 115.897 74.6118 114.193 76.6 114.193Z" fill="#333333"/>
<path d="M76.6 159.871C78.5882 159.871 80.2 161.575 80.2 163.677C80.2 165.779 78.5882 167.484 76.6 167.484C74.6118 167.484 73 165.779 73 163.677C73 161.575 74.6118 159.871 76.6 159.871Z" fill="#333333"/>
<path d="M98.2 -0.000295739C100.188 -0.000295826 101.8 1.7039 101.8 3.80615C101.8 5.9084 100.188 7.6126 98.2 7.6126C96.2118 7.6126 94.6 5.9084 94.6 3.80615C94.6 1.7039 96.2118 -0.000295652 98.2 -0.000295739Z" fill="#333333"/>
<path d="M98.2 45.6771C100.188 45.6771 101.8 47.3813 101.8 49.4836C101.8 51.5858 100.188 53.29 98.2 53.29C96.2118 53.29 94.6 51.5858 94.6 49.4836C94.6 47.3813 96.2118 45.6771 98.2 45.6771Z" fill="#333333"/>
<path d="M98.2 91.3545C100.188 91.3545 101.8 93.0587 101.8 95.161C101.8 97.2632 100.188 98.9674 98.2 98.9674C96.2118 98.9674 94.6 97.2632 94.6 95.161C94.6 93.0587 96.2118 91.3545 98.2 91.3545Z" fill="#333333"/>
<path d="M98.2 137.032C100.188 137.032 101.8 138.736 101.8 140.838C101.8 142.941 100.188 144.645 98.2 144.645C96.2118 144.645 94.6 142.941 94.6 140.838C94.6 138.736 96.2118 137.032 98.2 137.032Z" fill="#333333"/>
<path d="M98.2 182.709C100.188 182.709 101.8 184.414 101.8 186.516C101.8 188.618 100.188 190.322 98.2 190.322C96.2118 190.322 94.6 188.618 94.6 186.516C94.6 184.414 96.2118 182.709 98.2 182.709Z" fill="#333333"/>
<path d="M119.8 22.8384C121.788 22.8384 123.4 24.5426 123.4 26.6449C123.4 28.7471 121.788 30.4513 119.8 30.4513C117.812 30.4513 116.2 28.7471 116.2 26.6449C116.2 24.5426 117.812 22.8384 119.8 22.8384Z" fill="#333333"/>
<path d="M119.8 68.5158C121.788 68.5158 123.4 70.22 123.4 72.3223C123.4 74.4245 121.788 76.1287 119.8 76.1287C117.812 76.1287 116.2 74.4245 116.2 72.3223C116.2 70.22 117.812 68.5158 119.8 68.5158Z" fill="#333333"/>
<path d="M119.8 114.193C121.788 114.193 123.4 115.897 123.4 118C123.4 120.102 121.788 121.806 119.8 121.806C117.812 121.806 116.2 120.102 116.2 118C116.2 115.897 117.812 114.193 119.8 114.193Z" fill="#333333"/>
<path d="M119.8 159.871C121.788 159.871 123.4 161.575 123.4 163.677C123.4 165.779 121.788 167.484 119.8 167.484C117.812 167.484 116.2 165.779 116.2 163.677C116.2 161.575 117.812 159.871 119.8 159.871Z" fill="#333333"/>
<path d="M141.4 -0.000297628C143.388 -0.000297715 145 1.7039 145 3.80614C145 5.90839 143.388 7.6126 141.4 7.6126C139.412 7.6126 137.8 5.90839 137.8 3.80614C137.8 1.7039 139.412 -0.000297541 141.4 -0.000297628Z" fill="#333333"/>
<path d="M141.4 45.6771C143.388 45.6771 145 47.3813 145 49.4836C145 51.5858 143.388 53.29 141.4 53.29C139.412 53.29 137.8 51.5858 137.8 49.4836C137.8 47.3813 139.412 45.6771 141.4 45.6771Z" fill="#333333"/>
<path d="M141.4 91.3545C143.388 91.3545 145 93.0587 145 95.161C145 97.2632 143.388 98.9674 141.4 98.9674C139.412 98.9674 137.8 97.2632 137.8 95.161C137.8 93.0587 139.412 91.3545 141.4 91.3545Z" fill="#333333"/>
<path d="M141.4 137.032C143.388 137.032 145 138.736 145 140.838C145 142.941 143.388 144.645 141.4 144.645C139.412 144.645 137.8 142.941 137.8 140.838C137.8 138.736 139.412 137.032 141.4 137.032Z" fill="#333333"/>
<path d="M141.4 182.709C143.388 182.709 145 184.414 145 186.516C145 188.618 143.388 190.322 141.4 190.322C139.412 190.322 137.8 188.618 137.8 186.516C137.8 184.414 139.412 182.709 141.4 182.709Z" fill="#333333"/>
<path d="M163 22.8384C164.988 22.8384 166.6 24.5426 166.6 26.6449C166.6 28.7471 164.988 30.4513 163 30.4513C161.012 30.4513 159.4 28.7471 159.4 26.6449C159.4 24.5426 161.012 22.8384 163 22.8384Z" fill="#333333"/>
<path d="M163 68.5158C164.988 68.5158 166.6 70.22 166.6 72.3223C166.6 74.4245 164.988 76.1287 163 76.1287C161.012 76.1287 159.4 74.4245 159.4 72.3223C159.4 70.22 161.012 68.5158 163 68.5158Z" fill="#333333"/>
<path d="M163 114.193C164.988 114.193 166.6 115.897 166.6 118C166.6 120.102 164.988 121.806 163 121.806C161.012 121.806 159.4 120.102 159.4 118C159.4 115.897 161.012 114.193 163 114.193Z" fill="#333333"/>
<path d="M163 159.871C164.988 159.871 166.6 161.575 166.6 163.677C166.6 165.779 164.988 167.484 163 167.484C161.012 167.484 159.4 165.779 159.4 163.677C159.4 161.575 161.012 159.871 163 159.871Z" fill="#333333"/>
<path d="M184.6 -0.000299516C186.588 -0.000299603 188.2 1.70389 188.2 3.80614C188.2 5.90839 186.588 7.6126 184.6 7.6126C182.612 7.6126 181 5.90839 181 3.80614C181 1.70389 182.612 -0.000299429 184.6 -0.000299516Z" fill="#333333"/>
<path d="M184.6 45.6771C186.588 45.6771 188.2 47.3813 188.2 49.4836C188.2 51.5858 186.588 53.29 184.6 53.29C182.612 53.29 181 51.5858 181 49.4836C181 47.3813 182.612 45.6771 184.6 45.6771Z" fill="#333333"/>
<path d="M184.6 91.3545C186.588 91.3545 188.2 93.0587 188.2 95.161C188.2 97.2632 186.588 98.9674 184.6 98.9674C182.612 98.9674 181 97.2632 181 95.161C181 93.0587 182.612 91.3545 184.6 91.3545Z" fill="#333333"/>
<path d="M184.6 137.032C186.588 137.032 188.2 138.736 188.2 140.838C188.2 142.941 186.588 144.645 184.6 144.645C182.612 144.645 181 142.941 181 140.838C181 138.736 182.612 137.032 184.6 137.032Z" fill="#333333"/>
<path d="M184.6 182.709C186.588 182.709 188.2 184.414 188.2 186.516C188.2 188.618 186.588 190.322 184.6 190.322C182.612 190.322 181 188.618 181 186.516C181 184.414 182.612 182.709 184.6 182.709Z" fill="#333333"/>
<path d="M206.2 22.8384C208.188 22.8384 209.8 24.5426 209.8 26.6449C209.8 28.7471 208.188 30.4513 206.2 30.4513C204.212 30.4513 202.6 28.7471 202.6 26.6449C202.6 24.5426 204.212 22.8384 206.2 22.8384Z" fill="#333333"/>
<path d="M206.2 68.5158C208.188 68.5158 209.8 70.22 209.8 72.3223C209.8 74.4245 208.188 76.1287 206.2 76.1287C204.212 76.1287 202.6 74.4245 202.6 72.3223C202.6 70.22 204.212 68.5158 206.2 68.5158Z" fill="#333333"/>
<path d="M206.2 114.193C208.188 114.193 209.8 115.897 209.8 118C209.8 120.102 208.188 121.806 206.2 121.806C204.212 121.806 202.6 120.102 202.6 118C202.6 115.897 204.212 114.193 206.2 114.193Z" fill="#333333"/>
<path d="M206.2 159.871C208.188 159.871 209.8 161.575 209.8 163.677C209.8 165.779 208.188 167.484 206.2 167.484C204.212 167.484 202.6 165.779 202.6 163.677C202.6 161.575 204.212 159.871 206.2 159.871Z" fill="#333333"/>
<path d="M227.8 -0.000301404C229.788 -0.000301491 231.4 1.70389 231.4 3.80614C231.4 5.90839 229.788 7.6126 227.8 7.6126C225.812 7.6126 224.2 5.90839 224.2 3.80614C224.2 1.70389 225.812 -0.000301317 227.8 -0.000301404Z" fill="#333333"/>
<path d="M227.8 45.6771C229.788 45.6771 231.4 47.3813 231.4 49.4836C231.4 51.5858 229.788 53.29 227.8 53.29C225.812 53.29 224.2 51.5858 224.2 49.4836C224.2 47.3813 225.812 45.6771 227.8 45.6771Z" fill="#333333"/>
<path d="M227.8 91.3545C229.788 91.3545 231.4 93.0587 231.4 95.161C231.4 97.2632 229.788 98.9674 227.8 98.9674C225.812 98.9674 224.2 97.2632 224.2 95.161C224.2 93.0587 225.812 91.3545 227.8 91.3545Z" fill="#333333"/>
<path d="M227.8 137.032C229.788 137.032 231.4 138.736 231.4 140.838C231.4 142.941 229.788 144.645 227.8 144.645C225.812 144.645 224.2 142.941 224.2 140.838C224.2 138.736 225.812 137.032 227.8 137.032Z" fill="#333333"/>
<path d="M227.8 182.709C229.788 182.709 231.4 184.414 231.4 186.516C231.4 188.618 229.788 190.322 227.8 190.322C225.812 190.322 224.2 188.618 224.2 186.516C224.2 184.414 225.812 182.709 227.8 182.709Z" fill="#333333"/>
<path d="M249.4 22.8384C251.388 22.8384 253 24.5426 253 26.6449C253 28.7471 251.388 30.4513 249.4 30.4513C247.412 30.4513 245.8 28.7471 245.8 26.6449C245.8 24.5426 247.412 22.8384 249.4 22.8384Z" fill="#333333"/>
<path d="M249.4 68.5158C251.388 68.5158 253 70.22 253 72.3223C253 74.4245 251.388 76.1287 249.4 76.1287C247.412 76.1287 245.8 74.4245 245.8 72.3223C245.8 70.22 247.412 68.5158 249.4 68.5158Z" fill="#333333"/>
<path d="M249.4 114.193C251.388 114.193 253 115.897 253 118C253 120.102 251.388 121.806 249.4 121.806C247.412 121.806 245.8 120.102 245.8 118C245.8 115.897 247.412 114.193 249.4 114.193Z" fill="#333333"/>
<path d="M249.4 159.871C251.388 159.871 253 161.575 253 163.677C253 165.779 251.388 167.484 249.4 167.484C247.412 167.484 245.8 165.779 245.8 163.677C245.8 161.575 247.412 159.871 249.4 159.871Z" fill="#333333"/>
</svg>
