<svg width="100" height="63" viewBox="0 0 100 63" fill="none" xmlns="http://www.w3.org/2000/svg">
<path d="M97.9632 7.2838H92.7163V2.03689C92.7163 1.54306 92.2842 1.11096 91.7903 1.11096H9.13603C8.70393 1.11096 8.33356 1.29615 8.02492 1.54306L1.17307 8.45664C0.864424 8.76528 0.740967 9.13565 0.740967 9.56775V54.0739C0.740967 54.5678 1.17307 54.9999 1.66689 54.9999H6.91381V60.2468C6.91381 60.7406 7.3459 61.1727 7.83973 61.1727H97.9632C98.457 61.1727 98.8891 60.7406 98.8891 60.2468V8.20973C98.8891 7.7159 98.457 7.2838 97.9632 7.2838Z" fill="#F6F0E1"/>
<path d="M9.1356 2.03687H91.7282V54.0739H1.60474V9.56773C1.60474 9.38254 1.66647 9.25909 1.78992 9.13563L8.7035 2.22205C8.82696 2.09859 9.01214 2.03687 9.1356 2.03687Z" stroke="black" stroke-width="3.17901" stroke-linecap="round" stroke-linejoin="round"/>
<path d="M97.9621 8.20972V60.2468H7.83862V54.0739H91.7892V8.20972H97.9621Z" fill="black" stroke="black" stroke-width="3.17901" stroke-linecap="round" stroke-linejoin="round"/>
<path d="M84.2587 2.03687H9.13525" stroke="black" stroke-width="3.17901" stroke-linecap="round" stroke-linejoin="round"/>
<path d="M84.1967 15.0616H9.07324" stroke="black" stroke-width="3.17901" stroke-linecap="round" stroke-linejoin="round"/>
<path d="M84.1352 28.0863H9.01172" stroke="black" stroke-width="3.17901" stroke-linecap="round" stroke-linejoin="round"/>
<path d="M84.0737 41.0492H8.9502" stroke="black" stroke-width="3.17901" stroke-linecap="round" stroke-linejoin="round"/>
<path d="M84.0119 54.074H8.9502" stroke="black" stroke-width="3.17901" stroke-linecap="round" stroke-linejoin="round"/>
<path d="M21.3573 19.9381H23.5178C23.8881 19.9381 24.1351 20.185 24.1351 20.5554V22.7159C24.1351 23.0863 23.8881 23.3332 23.5178 23.3332H21.3573C20.9869 23.3332 20.74 23.0863 20.74 22.7159V20.5554C20.74 20.2468 21.0486 19.9381 21.3573 19.9381Z" fill="black"/>
<path d="M21.3573 45.9259H23.5178C23.8881 45.9259 24.1351 46.1728 24.1351 46.5432V48.7037C24.1351 49.0741 23.8881 49.321 23.5178 49.321H21.3573C20.9869 49.321 20.74 49.0741 20.74 48.7037V46.5432C20.74 46.1728 21.0486 45.9259 21.3573 45.9259Z" fill="black"/>
<path d="M35.9872 19.9381H38.1477C38.518 19.9381 38.7649 20.185 38.7649 20.5554V22.7159C38.7649 23.0863 38.518 23.3332 38.1477 23.3332H35.9872C35.6168 23.3332 35.3699 23.0863 35.3699 22.7159V20.5554C35.3699 20.2468 35.6785 19.9381 35.9872 19.9381Z" fill="black"/>
<path d="M57.9623 19.9381H60.1227C60.4931 19.9381 60.74 20.185 60.74 20.5554V22.7159C60.74 23.0863 60.4931 23.3332 60.1227 23.3332H57.9623C57.5919 23.3332 57.345 23.0863 57.345 22.7159V20.5554C57.345 20.2468 57.6536 19.9381 57.9623 19.9381Z" fill="black"/>
<path d="M68.086 22.7159C68.086 23.0863 67.8391 23.3332 67.4687 23.3332H65.3082C64.9378 23.3332 64.6909 23.0863 64.6909 22.7159V20.5554C64.6909 20.185 64.9378 19.9381 65.3082 19.9381H67.4687" fill="black"/>
<path d="M72.5919 19.9381H74.7524C75.1228 19.9381 75.3697 20.185 75.3697 20.5554V22.7159C75.3697 23.0863 75.1228 23.3332 74.7524 23.3332H72.5919C72.2215 23.3332 71.9746 23.0863 71.9746 22.7159V20.5554C71.9746 20.2468 72.2833 19.9381 72.5919 19.9381Z" fill="black"/>
<path d="M65.3082 19.9381H67.4687C67.8391 19.9381 68.086 20.185 68.086 20.5554V22.7159C68.086 23.0863 67.8391 23.3332 67.4687 23.3332H65.3082C64.9378 23.3332 64.6909 23.0863 64.6909 22.7159V20.5554C64.6909 20.2468 64.9378 19.9381 65.3082 19.9381Z" fill="black"/>
<path d="M14.0736 6.97522H16.2341C16.6044 6.97522 16.8514 7.22213 16.8514 7.5925V9.753C16.8514 10.1234 16.6044 10.3703 16.2341 10.3703H14.0736C13.7032 10.3703 13.4563 10.1234 13.4563 9.753V7.5925C13.4563 7.28386 13.7032 6.97522 14.0736 6.97522Z" fill="black"/>
<path d="M28.7032 6.97522H30.8637C31.2341 6.97522 31.481 7.22213 31.481 7.5925V9.753C31.481 10.1234 31.2341 10.3703 30.8637 10.3703H28.7032C28.3329 10.3703 28.0859 10.1234 28.0859 9.753V7.5925C28.0859 7.28386 28.3329 6.97522 28.7032 6.97522Z" fill="black"/>
<path d="M35.9872 6.97522H38.1477C38.518 6.97522 38.7649 7.22213 38.7649 7.5925V9.753C38.7649 10.1234 38.518 10.3703 38.1477 10.3703H35.9872C35.6168 10.3703 35.3699 10.1234 35.3699 9.753V7.5925C35.3699 7.28386 35.6785 6.97522 35.9872 6.97522Z" fill="black"/>
<path d="M50.6783 6.97522H52.8388C53.2092 6.97522 53.4561 7.22213 53.4561 7.5925V9.753C53.4561 10.1234 53.2092 10.3703 52.8388 10.3703H50.6783C50.3079 10.3703 50.061 10.1234 50.061 9.753V7.5925C50.061 7.28386 50.3079 6.97522 50.6783 6.97522Z" fill="black"/>
<path d="M65.3082 6.97522H67.4687C67.8391 6.97522 68.086 7.22213 68.086 7.5925V9.753C68.086 10.1234 67.8391 10.3703 67.4687 10.3703H65.3082C64.9378 10.3703 64.6909 10.1234 64.6909 9.753V7.5925C64.6909 7.28386 64.9378 6.97522 65.3082 6.97522Z" fill="black"/>
<path d="M79.9378 6.97522H82.0983C82.4687 6.97522 82.7156 7.22213 82.7156 7.5925V9.753C82.7156 10.1234 82.4687 10.3703 82.0983 10.3703H79.9378C79.5675 10.3703 79.3206 10.1234 79.3206 9.753V7.5925C79.3206 7.28386 79.5675 6.97522 79.9378 6.97522Z" fill="black"/>
<path d="M14.0736 32.9011H16.2341C16.6044 32.9011 16.8514 33.148 16.8514 33.5184V35.6789C16.8514 36.0493 16.6044 36.2962 16.2341 36.2962H14.0736C13.7032 36.2962 13.4563 36.0493 13.4563 35.6789V33.5184C13.4563 33.2098 13.7032 32.9011 14.0736 32.9011Z" fill="black"/>
<path d="M14.0736 45.9259H16.2341C16.6044 45.9259 16.8514 46.1728 16.8514 46.5432V48.7037C16.8514 49.0741 16.6044 49.321 16.2341 49.321H14.0736C13.7032 49.321 13.4563 49.0741 13.4563 48.7037V46.5432C13.4563 46.1728 13.7032 45.9259 14.0736 45.9259Z" fill="black"/>
<path d="M28.7032 32.9011H30.8637C31.2341 32.9011 31.481 33.148 31.481 33.5184V35.6789C31.481 36.0493 31.2341 36.2962 30.8637 36.2962H28.7032C28.3329 36.2962 28.0859 36.0493 28.0859 35.6789V33.5184C28.0859 33.2098 28.3329 32.9011 28.7032 32.9011Z" fill="black"/>
<path d="M43.3324 32.9011H45.4929C45.8632 32.9011 46.1101 33.148 46.1101 33.5184V35.6789C46.1101 36.0493 45.8632 36.2962 45.4929 36.2962H43.3324C42.962 36.2962 42.7151 36.0493 42.7151 35.6789V33.5184C42.7151 33.2098 42.962 32.9011 43.3324 32.9011Z" fill="black"/>
<path d="M65.3082 32.9011H67.4687C67.8391 32.9011 68.086 33.148 68.086 33.5184V35.6789C68.086 36.0493 67.8391 36.2962 67.4687 36.2962H65.3082C64.9378 36.2962 64.6909 36.0493 64.6909 35.6789V33.5184C64.6909 33.2098 64.9378 32.9011 65.3082 32.9011Z" fill="black"/>
<path d="M72.5919 32.9011H74.7524C75.1228 32.9011 75.3697 33.148 75.3697 33.5184V35.6789C75.3697 36.0493 75.1228 36.2962 74.7524 36.2962H72.5919C72.2215 36.2962 71.9746 36.0493 71.9746 35.6789V33.5184C71.9746 33.2098 72.2833 32.9011 72.5919 32.9011Z" fill="black"/>
<path d="M28.7032 45.9259H30.8637C31.2341 45.9259 31.481 46.1728 31.481 46.5432V48.7037C31.481 49.0741 31.2341 49.321 30.8637 49.321H28.7032C28.3329 49.321 28.0859 49.0741 28.0859 48.7037V46.5432C28.0859 46.1728 28.3329 45.9259 28.7032 45.9259Z" fill="black"/>
<path d="M50.6783 45.9259H52.8388C53.2092 45.9259 53.4561 46.1728 53.4561 46.5432V48.7037C53.4561 49.0741 53.2092 49.321 52.8388 49.321H50.6783C50.3079 49.321 50.061 49.0741 50.061 48.7037V46.5432C50.061 46.1728 50.3079 45.9259 50.6783 45.9259Z" fill="black"/>
<path d="M65.3082 45.9259H67.4687C67.8391 45.9259 68.086 46.1728 68.086 46.5432V48.7037C68.086 49.0741 67.8391 49.321 67.4687 49.321H65.3082C64.9378 49.321 64.6909 49.0741 64.6909 48.7037V46.5432C64.6909 46.1728 64.9378 45.9259 65.3082 45.9259Z" fill="black"/>
</svg>
