<svg width="98" height="118" viewBox="0 0 98 118" fill="none" xmlns="http://www.w3.org/2000/svg">
<path d="M3.34839 27.1019C3.34839 25.9973 4.24382 25.1019 5.34839 25.1019H95.059C96.1636 25.1019 97.059 25.9973 97.059 27.1019V115.139C97.059 116.244 96.1636 117.139 95.059 117.139H5.34839C4.24382 117.139 3.34839 116.244 3.34839 115.139V27.1019Z" fill="black"/>
<path d="M2.24077 23.6323L1.68652 44.0448V111.406H91.1482V23.6323H2.24077Z" fill="white"/>
<path fill-rule="evenodd" clip-rule="evenodd" d="M3 24.7544V110.792H90.7106V24.7544H3ZM2 21.7544C0.895431 21.7544 0 22.6498 0 23.7544V111.792C0 112.896 0.895429 113.792 2 113.792H91.7106C92.8152 113.792 93.7106 112.896 93.7106 111.792V23.7544C93.7106 22.6498 92.8152 21.7544 91.7106 21.7544H2Z" fill="black"/>
<path d="M2.51221 37.6522H91.2026" stroke="black" stroke-width="3"/>
<path d="M17.6748 88.6912H21.3354V103.333H17.6748V88.6912Z" fill="black"/>
<path d="M33.4678 81.5798H36.4581V75.3803H36.7418L40.256 81.5798H43.5082L39.7976 75.0744C41.7839 74.4015 42.8097 73.0963 42.8097 71.1793C42.8097 69.9354 42.3295 68.8341 41.5438 68.1204C40.4961 67.1619 39.0991 66.9376 37.1129 66.9376H33.4678V81.5798ZM36.4581 69.6702H37.7459C39.1646 69.6702 39.8849 70.2005 39.8849 71.1589C39.8849 72.1582 39.1865 72.668 37.8332 72.668H36.4581V69.6702Z" fill="black"/>
<path d="M16.7322 66.9363H20.3927V81.5786H16.7322V66.9363Z" fill="black"/>
<path d="M18.4089 70.2842V66.9374H26.776V70.2842H18.4089Z" fill="black"/>
<path d="M18.4089 76.9783V73.6315H26.776V76.9783H18.4089Z" fill="black"/>
<path d="M50.1975 66.937H53.5443V81.9976H50.1975V66.937Z" fill="black"/>
<path d="M51.8699 70.2845V66.9377H60.2369V70.2845H51.8699Z" fill="black"/>
<path d="M51.8699 75.3044V71.9576H60.2369V75.3044H51.8699Z" fill="black"/>
<path d="M51.8699 81.9977V78.6509H60.2369V81.9977H51.8699Z" fill="black"/>
<path d="M66.9329 66.9379H70.2797V81.9985H66.9329V66.9379Z" fill="black"/>
<path d="M68.6089 70.2836V66.9368H76.9759V70.2836H68.6089Z" fill="black"/>
<path d="M68.6089 75.3044V71.9576H76.9759V75.3044H68.6089Z" fill="black"/>
<path d="M68.6089 81.9976V78.6508H76.9759V81.9976H68.6089Z" fill="black"/>
<path d="M45.7019 88.6912H49.3625V103.333H45.7019V88.6912Z" fill="black"/>
<path d="M73.7327 88.6912H77.3932V103.333H73.7327V88.6912Z" fill="black"/>
<path d="M35.3529 88.6912H31.6923C29.6735 88.6912 28.0317 90.3329 28.0317 92.3517V99.6729C28.0317 101.692 29.6735 103.333 31.6923 103.333H35.3529C37.3717 103.333 39.0135 101.692 39.0135 99.6729V92.3517C39.0135 90.3329 37.3717 88.6912 35.3529 88.6912ZM31.6923 99.6729V92.3517H35.3529L35.3547 99.6729H31.6923Z" fill="black"/>
<path d="M17.6704 45.1828H21.331V59.8251H17.6704V45.1828Z" fill="black"/>
<path d="M45.7012 45.1828H49.3617V59.8251H45.7012V45.1828Z" fill="black"/>
<path d="M73.7285 45.1828H77.3891V59.8251H73.7285V45.1828Z" fill="black"/>
<path d="M35.3451 45.1828H31.6845C29.6657 45.1828 28.0239 46.8246 28.0239 48.8434V56.1645C28.0239 58.1833 29.6657 59.8251 31.6845 59.8251H35.3451C37.3639 59.8251 39.0056 58.1833 39.0056 56.1645V48.8434C39.0056 46.8246 37.3639 45.1828 35.3451 45.1828ZM31.6845 56.1645V48.8434H35.3451L35.3469 56.1645H31.6845Z" fill="black"/>
<path d="M63.3722 45.1828H59.7116C57.6928 45.1828 56.051 46.8246 56.051 48.8434V56.1645C56.051 58.1833 57.6928 59.8251 59.7116 59.8251H63.3722C65.391 59.8251 67.0327 58.1833 67.0327 56.1645V48.8434C67.0327 46.8246 65.391 45.1828 63.3722 45.1828ZM59.7116 56.1645V48.8434H63.3722L63.374 56.1645H59.7116Z" fill="black"/>
<path d="M17.6704 0.000488281H21.331V14.6428H17.6704V0.000488281Z" fill="black"/>
<path d="M45.7012 0.000488281H49.3617V14.6428H45.7012V0.000488281Z" fill="black"/>
<path d="M73.7285 0.000488281H77.3891V14.6428H73.7285V0.000488281Z" fill="black"/>
<path d="M35.3451 5.02039H31.6845C29.6657 5.02039 28.0239 6.66215 28.0239 8.68096V16.0021C28.0239 18.0209 29.6657 19.6627 31.6845 19.6627H35.3451C37.3639 19.6627 39.0056 18.0209 39.0056 16.0021V8.68096C39.0056 6.66215 37.3639 5.02039 35.3451 5.02039ZM31.6845 16.0021V8.68096H35.3451L35.3469 16.0021H31.6845Z" fill="black"/>
<path d="M63.3722 5.02039H59.7116C57.6928 5.02039 56.051 6.66215 56.051 8.68096V16.0021C56.051 18.0209 57.6928 19.6627 59.7116 19.6627H63.3722C65.391 19.6627 67.0327 18.0209 67.0327 16.0021V8.68096C67.0327 6.66215 65.391 5.02039 63.3722 5.02039ZM59.7116 16.0021V8.68096H63.3722L63.374 16.0021H59.7116Z" fill="black"/>
<path d="M63.38 88.6912H59.7194C57.7006 88.6912 56.0588 90.3329 56.0588 92.3517V99.6729C56.0588 101.692 57.7006 103.333 59.7194 103.333H63.38C65.3988 103.333 67.0406 101.692 67.0406 99.6729V92.3517C67.0406 90.3329 65.3988 88.6912 63.38 88.6912ZM59.7194 99.6729V92.3517H63.38L63.3818 99.6729H59.7194Z" fill="black"/>
<rect x="8.36572" y="28.4485" width="5.02021" height="5.02021" fill="black"/>
<rect x="16.7312" y="28.4485" width="5.02021" height="5.02021" fill="black"/>
<rect x="25.1006" y="28.4485" width="5.02021" height="5.02021" fill="black"/>
</svg>
