<svg width="289" height="301" viewBox="0 0 289 301" fill="none" xmlns="http://www.w3.org/2000/svg">
<mask id="path-1-inside-1" fill="white">
<path fill-rule="evenodd" clip-rule="evenodd" d="M214.413 16.8301L19.6311 30.4506C16.3255 30.6818 13.8331 33.5489 14.0643 36.8545L31.8522 291.233C32.1604 295.641 35.9832 298.964 40.3908 298.656L282.799 281.705C286.104 281.474 288.597 278.607 288.366 275.301L273.908 68.5481L214.413 16.8301Z"/>
</mask>
<path fill-rule="evenodd" clip-rule="evenodd" d="M214.413 16.8301L19.6311 30.4506C16.3255 30.6818 13.8331 33.5489 14.0643 36.8545L31.8522 291.233C32.1604 295.641 35.9832 298.964 40.3908 298.656L282.799 281.705C286.104 281.474 288.597 278.607 288.366 275.301L273.908 68.5481L214.413 16.8301Z" fill="black"/>
<path d="M214.413 16.8301L217.694 13.0566L216.131 11.6978L214.065 11.8423L214.413 16.8301ZM273.908 68.5481L278.896 68.1993L278.751 66.1333L277.188 64.7746L273.908 68.5481ZM19.9799 35.4384L214.762 21.8179L214.065 11.8423L19.2824 25.4628L19.9799 35.4384ZM19.0521 36.5057C19.0136 35.9548 19.429 35.4769 19.9799 35.4384L19.2824 25.4628C13.222 25.8866 8.65269 31.143 9.07647 37.2033L19.0521 36.5057ZM36.84 290.885L19.0521 36.5057L9.07647 37.2033L26.8644 291.582L36.84 290.885ZM40.042 293.668C38.3892 293.784 36.9556 292.537 36.84 290.885L26.8644 291.582C27.3652 298.744 33.5773 304.144 40.7395 303.644L40.042 293.668ZM282.45 276.717L40.042 293.668L40.7395 303.644L283.148 286.693L282.45 276.717ZM283.378 275.65C283.416 276.201 283.001 276.679 282.45 276.717L283.148 286.693C289.208 286.269 293.777 281.013 293.353 274.952L283.378 275.65ZM268.92 68.8969L283.378 275.65L293.353 274.952L278.896 68.1993L268.92 68.8969ZM277.188 64.7746L217.694 13.0566L211.133 20.6037L270.628 72.3217L277.188 64.7746Z" fill="black" mask="url(#path-1-inside-1)"/>
<mask id="path-3-inside-2" fill="white">
<path fill-rule="evenodd" clip-rule="evenodd" d="M201.605 5.69632L6.82254 19.3168C3.51691 19.548 1.02454 22.4151 1.2557 25.7207L19.0436 280.1C19.3518 284.507 23.1746 287.83 27.5822 287.522L269.99 270.571C273.296 270.34 275.788 267.473 275.557 264.167L261.1 57.4143L201.605 5.69632Z"/>
</mask>
<path fill-rule="evenodd" clip-rule="evenodd" d="M201.605 5.69632L6.82254 19.3168C3.51691 19.548 1.02454 22.4151 1.2557 25.7207L19.0436 280.1C19.3518 284.507 23.1746 287.83 27.5822 287.522L269.99 270.571C273.296 270.34 275.788 267.473 275.557 264.167L261.1 57.4143L201.605 5.69632Z" fill="#F7CA59"/>
<path d="M6.82254 19.3168L7.17133 24.3046L6.82254 19.3168ZM201.605 5.69632L204.885 1.92277L203.322 0.564026L201.256 0.708496L201.605 5.69632ZM261.1 57.4143L266.087 57.0656L265.943 54.9995L264.38 53.6408L261.1 57.4143ZM7.17133 24.3046L201.954 10.6841L201.256 0.708496L6.47376 14.329L7.17133 24.3046ZM6.24352 25.372C6.20499 24.821 6.62039 24.3432 7.17133 24.3046L6.47376 14.329C0.413426 14.7528 -4.1559 20.0092 -3.73212 26.0695L6.24352 25.372ZM24.0314 279.751L6.24352 25.372L-3.73212 26.0695L14.0558 280.448L24.0314 279.751ZM27.2334 282.534C25.5806 282.65 24.147 281.404 24.0314 279.751L14.0558 280.448C14.5566 287.611 20.7687 293.011 27.9309 292.51L27.2334 282.534ZM269.641 265.583L27.2334 282.534L27.9309 292.51L270.339 275.559L269.641 265.583ZM270.569 264.516C270.608 265.067 270.192 265.545 269.641 265.583L270.339 275.559C276.399 275.135 280.969 269.879 280.545 263.819L270.569 264.516ZM256.112 57.7631L270.569 264.516L280.545 263.819L266.087 57.0656L256.112 57.7631ZM264.38 53.6408L204.885 1.92277L198.324 9.46987L257.819 61.1879L264.38 53.6408Z" fill="black" mask="url(#path-3-inside-2)"/>
<mask id="path-5-inside-3" fill="white">
<path fill-rule="evenodd" clip-rule="evenodd" d="M200.607 5.76588L197.357 5.99316L201.542 65.847L261.396 61.6616L261.078 57.1122L260.474 57.8072L200.607 5.76588ZM257.249 2.36454L257.211 1.80778L256.654 1.84671L257.249 2.36454Z"/>
</mask>
<path fill-rule="evenodd" clip-rule="evenodd" d="M200.607 5.76588L197.357 5.99316L201.542 65.847L261.396 61.6616L261.078 57.1122L260.474 57.8072L200.607 5.76588ZM257.249 2.36454L257.211 1.80778L256.654 1.84671L257.249 2.36454Z" fill="#F6F0E1"/>
<path d="M197.357 5.99316L197.008 1.00534C195.685 1.09785 194.453 1.71206 193.583 2.71287C192.713 3.71368 192.276 5.01909 192.369 6.34195L197.357 5.99316ZM200.607 5.76588L203.887 1.99233C202.887 1.12234 201.581 0.685555 200.258 0.778057L200.607 5.76588ZM201.542 65.847L196.554 66.1958C196.747 68.9505 199.136 71.0275 201.891 70.8348L201.542 65.847ZM261.396 61.6616L261.745 66.6494C264.499 66.4568 266.576 64.0675 266.384 61.3128L261.396 61.6616ZM261.078 57.1122L266.066 56.7634C265.925 54.746 264.582 53.0123 262.664 52.3706C260.747 51.7289 258.631 52.3056 257.304 53.8319L261.078 57.1122ZM260.474 57.8072L257.193 61.5807C258.194 62.4507 259.5 62.8875 260.822 62.795C262.145 62.7025 263.377 62.0883 264.247 61.0875L260.474 57.8072ZM257.211 1.80778L262.198 1.45899C262.106 0.136141 261.492 -1.09578 260.491 -1.96577C259.49 -2.83576 258.185 -3.27255 256.862 -3.18004L257.211 1.80778ZM257.249 2.36454L253.969 6.13808C255.495 7.46484 257.671 7.74156 259.48 6.83921C261.29 5.93686 262.378 4.03314 262.237 2.01576L257.249 2.36454ZM256.654 1.84671L256.305 -3.14111C254.288 -3.00004 252.554 -1.65762 251.912 0.260182C251.27 2.17799 251.847 4.2935 253.373 5.62025L256.654 1.84671ZM197.705 10.981L200.956 10.7537L200.258 0.778057L197.008 1.00534L197.705 10.981ZM206.53 65.4982L202.345 5.64438L192.369 6.34195L196.554 66.1958L206.53 65.4982ZM261.047 56.6738L201.193 60.8592L201.891 70.8348L261.745 66.6494L261.047 56.6738ZM256.09 57.461L256.408 62.0104L266.384 61.3128L266.066 56.7634L256.09 57.461ZM257.304 53.8319L256.7 54.5269L264.247 61.0875L264.851 60.3925L257.304 53.8319ZM263.754 54.0336L203.887 1.99233L197.327 9.53943L257.193 61.5807L263.754 54.0336ZM252.223 2.15656L252.262 2.71332L262.237 2.01576L262.198 1.45899L252.223 2.15656ZM257.003 6.83453L257.559 6.7956L256.862 -3.18004L256.305 -3.14111L257.003 6.83453ZM253.373 5.62025L253.969 6.13808L260.53 -1.40901L259.934 -1.92684L253.373 5.62025Z" fill="black" mask="url(#path-5-inside-3)"/>
</svg>
