<svg width="289" height="312" viewBox="0 0 289 312" fill="none" xmlns="http://www.w3.org/2000/svg">
<mask id="path-1-inside-1" fill="white">
<path fill-rule="evenodd" clip-rule="evenodd" d="M214.413 27.8301L19.6311 41.4506C16.3255 41.6818 13.8331 44.5489 14.0643 47.8545L31.8522 302.233C32.1604 306.641 35.9832 309.964 40.3908 309.656L282.799 292.705C286.104 292.474 288.597 289.607 288.366 286.301L273.908 79.5481L214.413 27.8301Z"/>
</mask>
<path fill-rule="evenodd" clip-rule="evenodd" d="M214.413 27.8301L19.6311 41.4506C16.3255 41.6818 13.8331 44.5489 14.0643 47.8545L31.8522 302.233C32.1604 306.641 35.9832 309.964 40.3908 309.656L282.799 292.705C286.104 292.474 288.597 289.607 288.366 286.301L273.908 79.5481L214.413 27.8301Z" fill="black"/>
<path d="M214.413 27.8301L217.694 24.0566L216.131 22.6978L214.065 22.8423L214.413 27.8301ZM273.908 79.5481L278.896 79.1993L278.751 77.1333L277.188 75.7746L273.908 79.5481ZM19.9799 46.4384L214.762 32.8179L214.065 22.8423L19.2824 36.4628L19.9799 46.4384ZM19.0521 47.5057C19.0136 46.9548 19.429 46.4769 19.9799 46.4384L19.2824 36.4628C13.222 36.8866 8.65269 42.143 9.07647 48.2033L19.0521 47.5057ZM36.84 301.885L19.0521 47.5057L9.07647 48.2033L26.8644 302.582L36.84 301.885ZM40.042 304.668C38.3892 304.784 36.9556 303.537 36.84 301.885L26.8644 302.582C27.3652 309.744 33.5773 315.144 40.7395 314.644L40.042 304.668ZM282.45 287.717L40.042 304.668L40.7395 314.644L283.148 297.693L282.45 287.717ZM283.378 286.65C283.416 287.201 283.001 287.679 282.45 287.717L283.148 297.693C289.208 297.269 293.777 292.013 293.353 285.952L283.378 286.65ZM268.92 79.8969L283.378 286.65L293.353 285.952L278.896 79.1993L268.92 79.8969ZM277.188 75.7746L217.694 24.0566L211.133 31.6037L270.628 83.3217L277.188 75.7746Z" fill="black" mask="url(#path-1-inside-1)"/>
<mask id="path-3-inside-2" fill="white">
<path fill-rule="evenodd" clip-rule="evenodd" d="M201.605 16.6963L6.82254 30.3168C3.51691 30.548 1.02454 33.4151 1.2557 36.7207L19.0436 291.1C19.3518 295.507 23.1746 298.83 27.5822 298.522L269.99 281.571C273.296 281.34 275.788 278.473 275.557 275.167L261.1 68.4143L201.605 16.6963Z"/>
</mask>
<path fill-rule="evenodd" clip-rule="evenodd" d="M201.605 16.6963L6.82254 30.3168C3.51691 30.548 1.02454 33.4151 1.2557 36.7207L19.0436 291.1C19.3518 295.507 23.1746 298.83 27.5822 298.522L269.99 281.571C273.296 281.34 275.788 278.473 275.557 275.167L261.1 68.4143L201.605 16.6963Z" fill="#F7CA59"/>
<path d="M6.82254 30.3168L7.17133 35.3046L6.82254 30.3168ZM201.605 16.6963L204.885 12.9228L203.322 11.564L201.256 11.7085L201.605 16.6963ZM261.1 68.4143L266.087 68.0656L265.943 65.9995L264.38 64.6408L261.1 68.4143ZM7.17133 35.3046L201.954 21.6841L201.256 11.7085L6.47376 25.329L7.17133 35.3046ZM6.24352 36.372C6.20499 35.821 6.62039 35.3432 7.17133 35.3046L6.47376 25.329C0.413426 25.7528 -4.1559 31.0092 -3.73212 37.0695L6.24352 36.372ZM24.0314 290.751L6.24352 36.372L-3.73212 37.0695L14.0558 291.448L24.0314 290.751ZM27.2334 293.534C25.5806 293.65 24.147 292.404 24.0314 290.751L14.0558 291.448C14.5566 298.611 20.7687 304.011 27.9309 303.51L27.2334 293.534ZM269.641 276.583L27.2334 293.534L27.9309 303.51L270.339 286.559L269.641 276.583ZM270.569 275.516C270.608 276.067 270.192 276.545 269.641 276.583L270.339 286.559C276.399 286.135 280.969 280.879 280.545 274.819L270.569 275.516ZM256.112 68.7631L270.569 275.516L280.545 274.819L266.087 68.0656L256.112 68.7631ZM264.38 64.6408L204.885 12.9228L198.324 20.4699L257.819 72.1879L264.38 64.6408Z" fill="black" mask="url(#path-3-inside-2)"/>
<mask id="path-5-inside-3" fill="white">
<path fill-rule="evenodd" clip-rule="evenodd" d="M200.607 16.7659L197.357 16.9932L201.542 76.847L261.396 72.6616L261.078 68.1122L260.474 68.8072L200.607 16.7659ZM257.249 13.3645L257.211 12.8078L256.654 12.8467L257.249 13.3645Z"/>
</mask>
<path fill-rule="evenodd" clip-rule="evenodd" d="M200.607 16.7659L197.357 16.9932L201.542 76.847L261.396 72.6616L261.078 68.1122L260.474 68.8072L200.607 16.7659ZM257.249 13.3645L257.211 12.8078L256.654 12.8467L257.249 13.3645Z" fill="#F6F0E1"/>
<path d="M197.357 16.9932L197.008 12.0053C195.685 12.0978 194.453 12.7121 193.583 13.7129C192.713 14.7137 192.276 16.0191 192.369 17.3419L197.357 16.9932ZM200.607 16.7659L203.887 12.9923C202.887 12.1223 201.581 11.6856 200.258 11.7781L200.607 16.7659ZM201.542 76.847L196.554 77.1958C196.747 79.9505 199.136 82.0275 201.891 81.8348L201.542 76.847ZM261.396 72.6616L261.745 77.6494C264.499 77.4568 266.576 75.0675 266.384 72.3128L261.396 72.6616ZM261.078 68.1122L266.066 67.7634C265.925 65.746 264.582 64.0123 262.664 63.3706C260.747 62.7289 258.631 63.3056 257.304 64.8319L261.078 68.1122ZM260.474 68.8072L257.193 72.5807C258.194 73.4507 259.5 73.8875 260.822 73.795C262.145 73.7025 263.377 73.0883 264.247 72.0875L260.474 68.8072ZM257.211 12.8078L262.198 12.459C262.106 11.1361 261.492 9.90422 260.491 9.03423C259.49 8.16424 258.185 7.72745 256.862 7.81996L257.211 12.8078ZM257.249 13.3645L253.969 17.1381C255.495 18.4648 257.671 18.7416 259.48 17.8392C261.29 16.9369 262.378 15.0331 262.237 13.0158L257.249 13.3645ZM256.654 12.8467L256.305 7.85889C254.288 7.99996 252.554 9.34238 251.912 11.2602C251.27 13.178 251.847 15.2935 253.373 16.6203L256.654 12.8467ZM197.705 21.981L200.956 21.7537L200.258 11.7781L197.008 12.0053L197.705 21.981ZM206.53 76.4982L202.345 16.6444L192.369 17.3419L196.554 77.1958L206.53 76.4982ZM261.047 67.6738L201.193 71.8592L201.891 81.8348L261.745 77.6494L261.047 67.6738ZM256.09 68.461L256.408 73.0104L266.384 72.3128L266.066 67.7634L256.09 68.461ZM257.304 64.8319L256.7 65.5269L264.247 72.0875L264.851 71.3925L257.304 64.8319ZM263.754 65.0336L203.887 12.9923L197.327 20.5394L257.193 72.5807L263.754 65.0336ZM252.223 13.1566L252.262 13.7133L262.237 13.0158L262.198 12.459L252.223 13.1566ZM257.003 17.8345L257.559 17.7956L256.862 7.81996L256.305 7.85889L257.003 17.8345ZM253.373 16.6203L253.969 17.1381L260.53 9.59099L259.934 9.07316L253.373 16.6203Z" fill="black" mask="url(#path-5-inside-3)"/>

<path d="M27.6658 38.6399L50.6096 59.3051" stroke="black" stroke-width="5" stroke-linecap="round" stroke-linejoin="round"/>
<circle cx="27.5852" cy="38.5805" r="13" transform="rotate(-9 27.5852 38.5805)" fill="#FC6839" stroke="black" stroke-width="5"/>
</svg>
