<svg width="73" height="78" viewBox="0 0 73 78" fill="none" xmlns="http://www.w3.org/2000/svg">
<path d="M3 5.33015C7.4304 3.77282 12.1784 3 17.5514 3C22.3264 3 27.1424 3.61159 32 4.40955V33.4409C22.7011 31.8951 12.9298 30.7584 3 32.1859V5.33015Z" fill="black" stroke="black" stroke-width="6"/>
<path d="M70 4.26166V36.2618C61.0422 37.9366 49.9236 36.4979 40 34.6339V4.75123C45.3691 5.64917 52.1547 6.48842 56.7804 6.48842C61.5509 6.48842 65.9011 5.77018 70 4.26166ZM70.8162 3.94951C70.817 3.94918 70.8178 3.94886 70.8186 3.94854L70.8162 3.94951Z" fill="black" stroke="black" stroke-width="6"/>
<path d="M32.304 71.0108C27.1198 70.2847 20.6903 69.7136 16.2851 69.7136C11.5519 69.7136 7.23893 70.3624 3.17188 71.7274V40.5419C11.949 39.0427 22.7033 40.1249 32.304 41.7238V71.0108ZM2.42263 71.988C2.42327 71.9878 2.42391 71.9876 2.42455 71.9873L2.42263 71.988Z" fill="black" stroke="black" stroke-width="6"/>
<path d="M56.6499 74.1993C52.0989 74.1993 45.3423 73.5909 40.1943 72.8363V42.6239C49.3524 44.0853 60.2251 45.133 69.7633 43.8492V72.1219C65.7718 73.5093 61.4916 74.1993 56.6499 74.1993Z" fill="black" stroke="black" stroke-width="6"/>
<path d="M1 4.68155C1 4.07422 1.38088 3.53219 1.95247 3.32639C6.29079 1.76458 10.9175 1 16.1132 1C21.1263 1 26.1541 1.71438 31.1321 2.57061V32.9178C21.3624 31.2185 11.2332 29.8596 1 31.7472V4.68155Z" fill="#F6F0E1" stroke="black" stroke-width="2"/>
<path d="M67.9638 3.5037L67.9639 3.50377C68.3477 3.77351 68.576 4.21304 68.576 4.68213V35.3709C58.6339 37.5231 48.6338 36.0356 38.0071 34.1463V3.79361C43.0951 4.68553 48.345 5.48316 53.4626 5.48316C58.2874 5.48316 62.6059 4.78213 66.6478 3.32697L66.648 3.32691C67.0892 3.16796 67.58 3.23394 67.9638 3.5037Z" fill="#F6F0E1" stroke="black" stroke-width="2"/>
<path d="M1.61223 70.5634L1.61213 70.5633C1.22831 70.2936 1 69.8541 1 69.385V38.7586C10.8046 36.6363 20.6673 38.0534 31.1321 39.9056V70.197C26.1815 69.3367 21.0853 68.584 16.1132 68.584C11.2886 68.584 6.97009 69.285 2.92823 70.7401L2.92817 70.7402C2.48688 70.8991 1.99587 70.8331 1.61223 70.5634Z" fill="#F6F0E1" stroke="black" stroke-width="2"/>
<path d="M53.4626 73.0616C48.3023 73.0616 43.1271 72.3048 38.0071 71.4156V41.1293C48.0994 42.8958 58.2632 44.2788 68.576 42.3747V69.3799C68.576 69.9871 68.1951 70.5292 67.6235 70.7351C63.2852 72.2969 58.6583 73.0616 53.4626 73.0616Z" fill="#F6F0E1" stroke="black" stroke-width="2"/>
</svg>
