<svg width="399" height="258" viewBox="0 0 399 258" fill="none" xmlns="http://www.w3.org/2000/svg">
<path fill-rule="evenodd" clip-rule="evenodd" d="M197.5 0V2.01562H200.5V0H197.5ZM197.5 6.04688V10.0781H200.5V6.04688H197.5ZM197.5 14.1094V18.1406H200.5V14.1094H197.5ZM197.5 22.1719V26.2031H200.5V22.1719H197.5ZM197.5 30.2344V34.2656H200.5V30.2344H197.5ZM197.5 38.2969V42.3281H200.5V38.2969H197.5ZM197.5 46.3594V50.3906H200.5V46.3594H197.5ZM197.5 54.4219V58.4531H200.5V54.4219H197.5ZM197.5 62.4844V66.5156H200.5V62.4844H197.5ZM197.5 70.5469V74.5781H200.5V70.5469H197.5ZM197.5 78.6094V82.6406H200.5V78.6094H197.5ZM197.5 86.6719V90.7031H200.5V86.6719H197.5ZM197.5 94.7344V98.7656H200.5V94.7344H197.5ZM197.5 102.797V106.828H200.5V102.797H197.5ZM197.5 110.859V114.891H200.5V110.859H197.5ZM197.5 118.922V122.953H200.5V118.922H197.5ZM197.5 126.984V131.016H200.5V128.5H201.495V125.5H197.505V126.984H197.5ZM197.5 135.047V139.078H200.5V135.047H197.5ZM197.5 143.109V147.141H200.5V143.109H197.5ZM197.5 151.172V155.203H200.5V151.172H197.5ZM197.5 159.234V163.266H200.5V159.234H197.5ZM197.5 167.297V171.328H200.5V167.297H197.5ZM197.5 175.359V179.391H200.5V175.359H197.5ZM197.5 183.422V187.453H200.5V183.422H197.5ZM197.5 191.484V195.516H200.5V191.484H197.5ZM197.5 199.547V203.578H200.5V199.547H197.5ZM197.5 207.609V211.641H200.5V207.609H197.5ZM197.5 215.672V219.703H200.5V215.672H197.5ZM197.5 223.734V227.766H200.5V223.734H197.5ZM197.5 231.797V235.828H200.5V231.797H197.5ZM197.5 239.859V243.891H200.5V239.859H197.5ZM197.5 247.922V251.953H200.5V247.922H197.5ZM197.5 255.984V258H200.5V255.984H197.5ZM0 128.5H1.995L1.995 125.5H0V128.5ZM5.985 128.5H9.975V125.5H5.985L5.985 128.5ZM13.965 128.5H17.955V125.5H13.965V128.5ZM21.945 128.5H25.935V125.5H21.945V128.5ZM29.925 128.5H33.915V125.5H29.925V128.5ZM37.905 128.5H41.895V125.5H37.905V128.5ZM45.885 128.5H49.875V125.5H45.885V128.5ZM53.865 128.5H57.855V125.5H53.865V128.5ZM61.845 128.5H65.835V125.5H61.845V128.5ZM69.825 128.5H73.815V125.5H69.825V128.5ZM77.805 128.5H81.795V125.5H77.805V128.5ZM85.785 128.5L89.775 128.5V125.5H85.785V128.5ZM93.765 128.5H97.755V125.5H93.765V128.5ZM101.745 128.5H105.735V125.5H101.745V128.5ZM109.725 128.5H113.715V125.5H109.725V128.5ZM117.705 128.5H121.695V125.5H117.705V128.5ZM125.685 128.5H129.675V125.5H125.685V128.5ZM133.665 128.5H137.655V125.5H133.665V128.5ZM141.645 128.5H145.635V125.5H141.645V128.5ZM149.625 128.5H153.615V125.5H149.625V128.5ZM157.605 128.5H161.595V125.5H157.605V128.5ZM165.585 128.5H169.575V125.5H165.585V128.5ZM173.565 128.5H177.555V125.5H173.565V128.5ZM181.545 128.5H185.535V125.5H181.545V128.5ZM189.525 128.5H193.515V125.5H189.525V128.5ZM205.485 128.5H209.475V125.5H205.485V128.5ZM213.465 128.5H217.455V125.5H213.465V128.5ZM221.445 128.5H225.435V125.5H221.445V128.5ZM229.425 128.5H233.415V125.5H229.425V128.5ZM237.405 128.5H241.395V125.5H237.405V128.5ZM245.385 128.5H249.375V125.5H245.385V128.5ZM253.365 128.5H257.355V125.5H253.365V128.5ZM261.345 128.5L265.335 128.5V125.5H261.345V128.5ZM269.325 128.5H273.315V125.5H269.325V128.5ZM277.305 128.5H281.295V125.5H277.305V128.5ZM285.285 128.5H289.275V125.5H285.285V128.5ZM293.265 128.5H297.255V125.5H293.265V128.5ZM301.245 128.5H305.235V125.5H301.245V128.5ZM309.225 128.5H313.215V125.5H309.225V128.5ZM317.205 128.5H321.195V125.5H317.205V128.5ZM325.185 128.5H329.175V125.5H325.185V128.5ZM333.165 128.5H337.155V125.5H333.165V128.5ZM341.145 128.5H345.135V125.5H341.145V128.5ZM349.125 128.5H353.115V125.5H349.125V128.5ZM357.105 128.5H361.095V125.5H357.105V128.5ZM365.085 128.5H369.075V125.5H365.085V128.5ZM373.065 128.5H377.055V125.5H373.065V128.5ZM381.045 128.5H385.035V125.5H381.045V128.5ZM389.025 128.5H393.015V125.5L389.025 125.5V128.5ZM397.005 128.5H399V125.5H397.005V128.5Z" fill="#333333"/>
</svg>
