<svg width="74" height="74" viewBox="0 0 74 74" fill="none" xmlns="http://www.w3.org/2000/svg">
<circle cx="36.7575" cy="36.7575" r="34.7575" stroke="black" stroke-width="3"/>
<path d="M47.2578 29.9189C47.2578 29.9189 47.2578 25.3021 47.2578 22.9189C47.2578 16.8438 42.3329 11.9189 36.2578 11.9189C30.1827 11.9189 25.2578 16.8438 25.2578 22.9189V29.9189" stroke="black" stroke-width="3"/>
<path d="M22.2578 31.5957C22.2578 29.3866 24.0487 27.5957 26.2578 27.5957H50.2578C52.467 27.5957 54.2578 29.3866 54.2578 31.5957V51.5957C54.2578 53.8048 52.467 55.5957 50.2578 55.5957H26.2578C24.0487 55.5957 22.2578 53.8048 22.2578 51.5957V31.5957Z" fill="#F6F0E1" stroke="black" stroke-width="3"/>
<path d="M54.1133 55.5498L51.7383 57.8623L51.1133 56.5186L54.1133 55.5498Z" fill="black"/>
<path d="M20.2578 33.5957C20.2578 31.3866 22.0487 29.5957 24.2578 29.5957H48.2578C50.467 29.5957 52.2578 31.3866 52.2578 33.5957V53.5957C52.2578 55.8048 50.467 57.5957 48.2578 57.5957H24.2578C22.0487 57.5957 20.2578 55.8048 20.2578 53.5957V33.5957Z" fill="#F6F0E1" stroke="black" stroke-width="3"/>
<path d="M22.582 31.1436L20.582 29.4871L22.1133 27.9871L22.582 31.1436Z" fill="black"/>
<path d="M35.2578 45.0957C37.467 45.0957 39.2578 43.3048 39.2578 41.0957C39.2578 38.8866 37.467 37.0957 35.2578 37.0957C33.0487 37.0957 31.2578 38.8866 31.2578 41.0957C31.2578 43.3048 33.0487 45.0957 35.2578 45.0957Z" fill="black"/>
<path d="M34.7578 50.5957V44.5957H35.7578V50.5957H34.7578Z" fill="black" stroke="black"/>
</svg>
