<svg width="78" height="79" viewBox="0 0 78 79" fill="none" xmlns="http://www.w3.org/2000/svg">
<path d="M35.8281 27V6C35.8281 3.79086 37.619 2 39.8281 2H71.8281C74.0373 2 75.8281 3.79086 75.8281 6V38C75.8281 40.2091 74.0373 42 71.8281 42H41.8281" stroke="black" stroke-width="3"/>
<path d="M47.8281 29.09L63.8269 14.9092" stroke="black" stroke-width="3"/>
<path d="M63.8281 29.09L47.8293 14.9092" stroke="black" stroke-width="3"/>
<rect x="4.90283" y="36.7427" width="38.7542" height="38.7542" rx="4" fill="black" stroke="black" stroke-width="3"/>
<rect x="2" y="38.6799" width="38.7542" height="38.7542" rx="4" fill="#F6F0E1" stroke="black" stroke-width="3"/>
<path d="M12.0132 57.757L19.1181 64.3544L33.328 51.7593" stroke="black" stroke-width="3"/>
<path d="M43.1171 75.7992L39.5444 78.1911L42.2088 72.1055L43.1171 75.7992Z" fill="black"/>
<path d="M2.90739 38.135L5.87451 36.167L2.90739 42.8279V38.135Z" fill="black"/>
<path d="M30.3281 24.0908L35.8925 29.0908L41.3281 24.1837" stroke="black" stroke-width="3" stroke-linejoin="round"/>
</svg>
